<svg id="Object" xmlns="http://www.w3.org/2000/svg" viewBox="0 0 209.18 110.15">
  <defs>
    <style>
      .cls-1 {
        fill: #e04c79;
      }
    </style>
  </defs>
  <title>icon-1</title>
  <g>
    <path class="cls-1" d="M722.53,466.12a14.35,14.35,0,1,0,14.35,14.35A14.35,14.35,0,0,0,722.53,466.12Zm0,21.75a7.4,7.4,0,1,1,7.4-7.4A7.4,7.4,0,0,1,722.53,487.87Z" transform="translate(-538.38 -384.68)"/>
    <path class="cls-1" d="M587.88,466.12a14.35,14.35,0,1,0,14.36,14.35A14.35,14.35,0,0,0,587.88,466.12Zm0,21.75a7.4,7.4,0,1,1,7.4-7.4A7.4,7.4,0,0,1,587.88,487.87Z" transform="translate(-538.38 -384.68)"/>
    <rect class="cls-1" x="95.72" y="71.77" width="34.64" height="21.47" rx="7" ry="7"/>
    <path class="cls-1" d="M747.4,435.42c-1-9.29-8.5-36.38-8.5-36.38-1.16-3.86-3.13-7-7-7H704.71a7,7,0,0,0-7,7V460.5h-21.9a4.58,4.58,0,0,0-4.58,4.58v4.21a4.58,4.58,0,0,0,4.58,4.58H706a18.19,18.19,0,0,1,33.21,0h1.16a7,7,0,0,0,7-7S747.77,438.77,747.4,435.42Zm-34.09,6.36h-7.13a2,2,0,0,1,0-4h7.13A2,2,0,0,1,713.32,441.77Zm24.89-13.25a4.4,4.4,0,0,1-4.4,4.4H711.37a4.4,4.4,0,0,1-4.4-4.4V403a4.4,4.4,0,0,1,4.4-4.4h17.1c2.43,0,3.67,2,4.4,4.4,0,0,4.72,17,5.35,22.88A6.56,6.56,0,0,1,738.21,428.52Z" transform="translate(-538.38 -384.68)"/>
    <path class="cls-1" d="M626.66,460.5H560.4a4.58,4.58,0,0,0-4.58,4.58v4.21a4.58,4.58,0,0,0,4.58,4.58h10.88a18.19,18.19,0,0,1,33.21,0h22.16a4.58,4.58,0,0,0,4.58-4.58v-4.21A4.58,4.58,0,0,0,626.66,460.5Z" transform="translate(-538.38 -384.68)"/>
    <path class="cls-1" d="M565.6,451.91l0.34,0h108.3a15,15,0,0,0,15-15V399.68a15,15,0,0,0-15-15H565.93a15,15,0,0,0-15,15v36.87l-12,12a2,2,0,0,0,1.41,3.41h25Zm97.59-51.64a3,3,0,0,1,3-3h1a3,3,0,0,1,3,3v37.5a3,3,0,0,1-3,3h-1a3,3,0,0,1-3-3v-37.5Zm-18.83,0a3,3,0,0,1,3-3h1a3,3,0,0,1,3,3v37.5a3,3,0,0,1-3,3h-1a3,3,0,0,1-3-3v-37.5Zm-18.83,0a3,3,0,0,1,3-3h1a3,3,0,0,1,3,3v37.5a3,3,0,0,1-3,3h-1a3,3,0,0,1-3-3v-37.5Zm-18.83,0a3,3,0,0,1,3-3h1a3,3,0,0,1,3,3v37.5a3,3,0,0,1-3,3h-1a3,3,0,0,1-3-3v-37.5Zm-18.83,0a3,3,0,0,1,3-3h1a3,3,0,0,1,3,3v37.5a3,3,0,0,1-3,3h-1a3,3,0,0,1-3-3v-37.5Zm-18.83,0a3,3,0,0,1,3-3h1a3,3,0,0,1,3,3v37.5a3,3,0,0,1-3,3h-1a3,3,0,0,1-3-3v-37.5Z" transform="translate(-538.38 -384.68)"/>
  </g>
</svg>
