<svg id="Object" xmlns="http://www.w3.org/2000/svg" viewBox="0 0 191.74 131.96">
  <defs>
    <style>
      .cls-1 {
        fill: #ea8675;
      }
    </style>
  </defs>
  <title>icon-2</title>
  <g>
    <path class="cls-1" d="M470.84,137.59a14.35,14.35,0,1,0,14.35,14.35A14.35,14.35,0,0,0,470.84,137.59Zm0,21.75a7.4,7.4,0,1,1,7.4-7.4A7.4,7.4,0,0,1,470.84,159.34Z" transform="translate(-304.13 -34.34)"/>
    <path class="cls-1" d="M336.18,137.59a14.35,14.35,0,1,0,14.36,14.35A14.35,14.35,0,0,0,336.18,137.59Zm0,21.75a7.4,7.4,0,1,1,7.4-7.4A7.4,7.4,0,0,1,336.18,159.34Z" transform="translate(-304.13 -34.34)"/>
    <rect class="cls-1" x="78.28" y="93.58" width="34.64" height="21.47" rx="7" ry="7"/>
    <path class="cls-1" d="M495.71,106.89c-1-9.29-8.5-36.38-8.5-36.38-1.16-3.86-3.13-7-7-7H453a7,7,0,0,0-7,7V132h-21.9a4.58,4.58,0,0,0-4.58,4.58v4.21a4.58,4.58,0,0,0,4.58,4.58h30.22a18.19,18.19,0,0,1,33.21,0h1.16a7,7,0,0,0,7-7S496.07,110.25,495.71,106.89Zm-34.09,6.36H454.5a2,2,0,0,1,0-4h7.13A2,2,0,0,1,461.62,113.25ZM486.52,100a4.4,4.4,0,0,1-4.4,4.4H459.67a4.4,4.4,0,0,1-4.4-4.4V74.48a4.4,4.4,0,0,1,4.4-4.4h17.1c2.43,0,3.67,2,4.4,4.4,0,0,4.72,17,5.35,22.88A6.55,6.55,0,0,1,486.52,100Z" transform="translate(-304.13 -34.34)"/>
    <path class="cls-1" d="M375,132H308.71a4.58,4.58,0,0,0-4.58,4.58v4.21a4.58,4.58,0,0,0,4.58,4.58h10.88a18.19,18.19,0,0,1,33.21,0H375a4.58,4.58,0,0,0,4.58-4.58v-4.21A4.58,4.58,0,0,0,375,132Z" transform="translate(-304.13 -34.34)"/>
    <path class="cls-1" d="M330.41,116.84h96a11,11,0,0,0,11-11v-48a11,11,0,0,0-11-11H408.23a11,11,0,0,0-11,11v1.68l-65.77-25A3.5,3.5,0,0,0,329,41.11l1.52,0.58v4H329a0.79,0.79,0,0,0-.79.79V52a0.79,0.79,0,0,0,.79.79h5.74a0.79,0.79,0,0,0,.79-0.79V46.43a0.79,0.79,0,0,0-.79-0.79h-1.49v-2.9l30.38,11.52,3.94,12a10.94,10.94,0,0,0-2,6.36v9.22H330.41a11,11,0,0,0-11,11v13A11,11,0,0,0,330.41,116.84ZM383,61.62h-6.5a11,11,0,0,0-3.89.72L370.9,57Z" transform="translate(-304.13 -34.34)"/>
  </g>
</svg>
