<?xml version="1.0"?>
<svg xmlns="http://www.w3.org/2000/svg" height="512px" viewBox="-88 0 448 448" width="512px"><path d="m272 384h-272v40c0 13.253906 10.746094 24 24 24h224c13.253906 0 24-10.746094 24-24zm-136 56c-13.253906 0-24-10.746094-24-24s10.746094-24 24-24 24 10.746094 24 24-10.746094 24-24 24zm0 0" fill="#2c3b40"/><path d="m0 48h272v320h-272zm0 0" fill="#2c3b40"/><path d="m272 24c0-13.253906-10.746094-24-24-24h-224c-13.253906 0-24 10.746094-24 24v8h272zm-128 0h-16c-4.417969 0-8-3.582031-8-8s3.582031-8 8-8h16c4.417969 0 8 3.582031 8 8s-3.582031 8-8 8zm0 0" fill="#2c3b40"/><path d="m144 416c0 4.417969-3.582031 8-8 8s-8-3.582031-8-8 3.582031-8 8-8 8 3.582031 8 8zm0 0" fill="#2c3b40"/></svg>
