<svg xmlns="http://www.w3.org/2000/svg"><defs><style>.cls-1{fill:#e04c79}</style><style>.cls-1{fill:#ea8675}</style></defs><symbol id="check-list" viewBox="-71 0 478 478.74788"><path fill="#213036" d="M240.375 54.746v-16c0-8.836-7.164-16-16-16h-26.402C194.403 9.336 182.253 0 168.375 0c-13.883 0-26.027 9.336-29.602 22.746h-26.398c-8.836 0-16 7.164-16 16v16h-96v424h336v-424zm-128-16h41.367v-8c0-8.078 6.551-14.629 14.633-14.629 8.078 0 14.633 6.551 14.633 14.63v8h41.367v40c0 4.421-3.582 8-8 8h-96c-4.418 0-8-3.579-8-8zm208 424h-304v-392h80v8c0 13.258 10.742 24 24 24h96c13.254 0 24-10.742 24-24v-8h80zm0 0"/><path fill="#213036" d="M128.375 54.746h80v16h-80zm0 0M150.031 140.402l-11.312-11.308-42.344 42.344-18.344-18.344-11.312 11.308 29.656 29.657zm0 0"/><path fill="#213036" d="M120.375 198.746h-56v-48h-16v64h72zm0 0M152.375 198.746h128v16h-128zm0 0M138.719 241.094l-42.344 42.344-18.344-18.344-11.312 11.308 29.656 29.657 53.656-53.657zm0 0"/><path fill="#213036" d="M120.375 310.746h-56v-48h-16v64h72zm0 0M152.375 310.746h128v16h-128zm0 0M78.031 377.094L66.72 388.402l29.656 29.657 53.656-53.657-11.312-11.308-42.344 42.344zm0 0"/><path fill="#213036" d="M64.375 374.746h-16v64h72v-16h-56zm0 0M144.375 422.746h136v16h-136zm0 0"/></symbol><symbol id="gear" viewBox="0 0 512 512"><g fill="#213036"><path d="M490.14 178.611l-42.868-8.572a160.23 160.23 0 0 0-10.867-26.228l24.252-36.378c7.165-10.748 5.737-25.176-3.398-34.312l-18.38-18.38c-9.134-9.135-23.563-10.566-34.312-3.398l-36.378 24.252a160.34 160.34 0 0 0-26.228-10.867l-8.574-42.868C330.854 9.193 319.641 0 306.724 0h-25.995c-12.916 0-24.131 9.193-26.664 21.86l-8.574 42.868a160.266 160.266 0 0 0-26.228 10.867l-36.378-24.252c-10.748-7.165-25.179-5.738-34.312 3.396l-18.381 18.382c-9.133 9.134-10.561 23.563-3.396 34.31l24.252 36.378a160.303 160.303 0 0 0-10.867 26.228l-42.868 8.573c-12.666 2.534-21.86 13.747-21.86 26.665v25.993c0 12.917 9.193 24.132 21.86 26.665l27.755 5.55a8.084 8.084 0 0 0 3.17-15.854l-27.755-5.55c-5.134-1.025-8.861-5.573-8.861-10.809v-25.993c0-5.236 3.727-9.784 8.861-10.81l47.645-9.529a8.085 8.085 0 0 0 6.2-5.75 143.994 143.994 0 0 1 13.193-31.84 8.086 8.086 0 0 0-.317-8.452l-26.955-40.433c-2.905-4.357-2.325-10.208 1.378-13.909l18.381-18.382c3.703-3.703 9.552-4.281 13.909-1.376L214.35 91.75a8.086 8.086 0 0 0 8.452.318 143.983 143.983 0 0 1 31.84-13.192 8.085 8.085 0 0 0 5.75-6.2l9.529-47.645c1.027-5.135 5.573-8.862 10.809-8.862h25.995c5.236 0 9.783 3.727 10.809 8.862l9.529 47.645a8.084 8.084 0 0 0 5.75 6.2 144.002 144.002 0 0 1 31.84 13.192 8.086 8.086 0 0 0 8.452-.318l40.434-26.955c4.357-2.905 10.207-2.327 13.909 1.378l18.38 18.38c3.704 3.704 4.282 9.553 1.378 13.91l-26.955 40.433a8.081 8.081 0 0 0-.317 8.452 144.042 144.042 0 0 1 13.193 31.84 8.087 8.087 0 0 0 6.2 5.75l47.645 9.529c5.135 1.026 8.861 5.574 8.861 10.81v25.993c0 5.236-3.727 9.784-8.861 10.81l-47.645 9.529a8.086 8.086 0 0 0-6.2 5.749 144.025 144.025 0 0 1-13.193 31.84 8.086 8.086 0 0 0 .317 8.452l26.955 40.433c2.905 4.357 2.325 10.208-1.378 13.909l-18.381 18.382c-3.703 3.703-9.551 4.281-13.909 1.376l-40.433-26.954a8.082 8.082 0 0 0-11.21 2.242 8.084 8.084 0 0 0 2.242 11.21l40.433 26.955a27.09 27.09 0 0 0 15.057 4.548c7.03 0 14.015-2.704 19.254-7.944l18.381-18.382c9.133-9.134 10.561-23.563 3.396-34.31l-24.252-36.378a160.376 160.376 0 0 0 10.867-26.228l42.868-8.572c12.666-2.534 21.86-13.748 21.86-26.665v-25.993c-.001-12.92-9.194-24.133-21.861-26.668z"/><path d="M320.674 280.253h-75.453a8.083 8.083 0 0 0-8.084 8.084 8.084 8.084 0 0 0 8.084 8.084h75.453c7.43 0 13.474 6.044 13.474 13.474v10.779c0 7.43-6.044 13.474-13.474 13.474h-75.453a8.084 8.084 0 0 0-8.084 8.084 8.084 8.084 0 0 0 8.084 8.084h75.453c7.43 0 13.474 6.044 13.474 13.474v10.779c0 7.43-6.044 13.474-13.474 13.474h-75.453a8.083 8.083 0 0 0-8.084 8.084 8.084 8.084 0 0 0 8.084 8.084h75.453c7.43 0 13.474 6.044 13.474 13.474v10.779c0 7.43-6.044 13.474-13.474 13.474h-75.453a8.083 8.083 0 0 0-8.084 8.084 8.084 8.084 0 0 0 8.084 8.084h75.453c7.43 0 13.474 6.044 13.474 13.474v10.779c0 7.43-6.044 13.474-13.474 13.474h-146.44c-7.644 0-14.838-2.97-20.256-8.36-8.553-8.51-19.843-13.198-31.79-13.198H102.4v-88.926c0-4.466-3.62-8.084-8.084-8.084s-8.084 3.618-8.084 8.084v107.789a2.698 2.698 0 0 1-2.695 2.695H59.284V385.347c0-4.466-3.62-8.084-8.084-8.084s-8.084 3.618-8.084 8.084v110.484H18.863a2.698 2.698 0 0 1-2.695-2.695V309.895a2.698 2.698 0 0 1 2.695-2.695h64.674a2.698 2.698 0 0 1 2.695 2.695v43.116c0 4.466 3.62 8.084 8.084 8.084s8.084-3.618 8.084-8.084v-24.253h19.492a29.607 29.607 0 0 0 28.121-20.268l3.009-9.032a273.213 273.213 0 0 0 14.051-86.574c0-7.43 6.044-13.474 13.474-13.474 6.479 0 12.569 2.523 17.15 7.104s7.103 10.671 7.103 17.15v86.229a8.084 8.084 0 0 0 16.168 0v-86.229c0-10.797-4.204-20.949-11.839-28.584-7.635-7.635-17.786-11.84-28.584-11.84-16.345 0-29.642 13.298-29.642 29.642 0 27.74-4.448 55.147-13.221 81.461l-3.011 9.032a13.457 13.457 0 0 1-12.782 9.213H102.4v-2.695c0-10.401-8.463-18.863-18.863-18.863H18.863C8.463 291.032 0 299.494 0 309.895v183.242C0 503.537 8.463 512 18.863 512h64.674c10.401 0 18.863-8.463 18.863-18.863v-2.695h19.787c7.644 0 14.884 3.016 20.386 8.491 8.469 8.426 19.713 13.067 31.66 13.067h146.441c16.345 0 29.642-13.298 29.642-29.642v-10.779c0-8.485-3.584-16.149-9.317-21.558 5.733-5.409 9.317-13.073 9.317-21.558v-10.779c0-8.485-3.584-16.149-9.317-21.558 5.733-5.409 9.317-13.073 9.317-21.558v-10.779c0-8.485-3.584-16.149-9.317-21.558 5.733-5.409 9.317-13.073 9.317-21.558v-10.779c0-16.343-13.297-29.641-29.642-29.641z"/><path d="M293.701 259.775c2.119 0 4.265-.163 6.423-.5 22.608-3.53 38.129-24.793 34.6-47.399-3.528-22.608-24.796-38.133-47.398-34.602-22.608 3.53-38.129 24.793-34.6 47.399 3.192 20.449 20.894 35.101 40.975 35.102zm-3.881-66.527c13.8-2.143 26.777 7.321 28.931 21.119 2.154 13.799-7.32 26.777-21.118 28.932-13.798 2.154-26.777-7.321-28.931-21.119-2.154-13.799 7.32-26.777 21.118-28.932zM366.829 296.421a8.06 8.06 0 0 0 5.841-2.494c23.782-24.85 34.382-58.57 29.084-92.514-2.692-17.244-9.208-33.113-19.371-47.163a8.086 8.086 0 0 0-13.102 9.476c8.652 11.964 14.203 25.483 16.497 40.18 4.514 28.925-4.521 57.662-24.79 78.843a8.084 8.084 0 0 0 5.841 13.672zM361.144 142.298a8.082 8.082 0 0 0-1.589-11.321c-23.838-17.972-53.206-25.34-82.691-20.73-33.834 5.28-62.67 25.561-79.115 55.644a8.085 8.085 0 0 0 14.186 7.757c14.017-25.64 38.591-42.926 67.422-47.425 25.126-3.925 50.151 2.352 70.464 17.666 3.567 2.685 8.636 1.975 11.323-1.591z"/></g></symbol><symbol id="icon-1" viewBox="0 0 209.18 110.15"><title>icon-1</title><path class="cls-1" d="M722.53 466.12a14.35 14.35 0 1 0 14.35 14.35 14.35 14.35 0 0 0-14.35-14.35zm0 21.75a7.4 7.4 0 1 1 7.4-7.4 7.4 7.4 0 0 1-7.4 7.4zM587.88 466.12a14.35 14.35 0 1 0 14.36 14.35 14.35 14.35 0 0 0-14.36-14.35zm0 21.75a7.4 7.4 0 1 1 7.4-7.4 7.4 7.4 0 0 1-7.4 7.4z" transform="translate(-538.38 -384.68)"/><rect class="cls-1" x="95.72" y="71.77" width="34.64" height="21.47" rx="7" ry="7"/><path class="cls-1" d="M747.4 435.42c-1-9.29-8.5-36.38-8.5-36.38-1.16-3.86-3.13-7-7-7h-27.19a7 7 0 0 0-7 7v61.46h-21.9a4.58 4.58 0 0 0-4.58 4.58v4.21a4.58 4.58 0 0 0 4.58 4.58H706a18.19 18.19 0 0 1 33.21 0h1.16a7 7 0 0 0 7-7s.4-28.1.03-31.45zm-34.09 6.36h-7.13a2 2 0 0 1 0-4h7.13a2 2 0 0 1 .01 3.99zm24.89-13.25a4.4 4.4 0 0 1-4.4 4.4h-22.43a4.4 4.4 0 0 1-4.4-4.4V403a4.4 4.4 0 0 1 4.4-4.4h17.1c2.43 0 3.67 2 4.4 4.4 0 0 4.72 17 5.35 22.88a6.56 6.56 0 0 1-.01 2.64zM626.66 460.5H560.4a4.58 4.58 0 0 0-4.58 4.58v4.21a4.58 4.58 0 0 0 4.58 4.58h10.88a18.19 18.19 0 0 1 33.21 0h22.16a4.58 4.58 0 0 0 4.58-4.58v-4.21a4.58 4.58 0 0 0-4.57-4.58z" transform="translate(-538.38 -384.68)"/><path class="cls-1" d="M565.6 451.91h108.64a15 15 0 0 0 15-15v-37.23a15 15 0 0 0-15-15H565.93a15 15 0 0 0-15 15v36.87l-12 12a2 2 0 0 0 1.41 3.41h25zm97.59-51.64a3 3 0 0 1 3-3h1a3 3 0 0 1 3 3v37.5a3 3 0 0 1-3 3h-1a3 3 0 0 1-3-3v-37.5zm-18.83 0a3 3 0 0 1 3-3h1a3 3 0 0 1 3 3v37.5a3 3 0 0 1-3 3h-1a3 3 0 0 1-3-3v-37.5zm-18.83 0a3 3 0 0 1 3-3h1a3 3 0 0 1 3 3v37.5a3 3 0 0 1-3 3h-1a3 3 0 0 1-3-3v-37.5zm-18.83 0a3 3 0 0 1 3-3h1a3 3 0 0 1 3 3v37.5a3 3 0 0 1-3 3h-1a3 3 0 0 1-3-3v-37.5zm-18.83 0a3 3 0 0 1 3-3h1a3 3 0 0 1 3 3v37.5a3 3 0 0 1-3 3h-1a3 3 0 0 1-3-3v-37.5zm-18.83 0a3 3 0 0 1 3-3h1a3 3 0 0 1 3 3v37.5a3 3 0 0 1-3 3h-1a3 3 0 0 1-3-3v-37.5z" transform="translate(-538.38 -384.68)"/></symbol><symbol id="icon-2" viewBox="0 0 191.74 131.96"><title>icon-2</title><path class="cls-1" d="M470.84 137.59a14.35 14.35 0 1 0 14.35 14.35 14.35 14.35 0 0 0-14.35-14.35zm0 21.75a7.4 7.4 0 1 1 7.4-7.4 7.4 7.4 0 0 1-7.4 7.4zM336.18 137.59a14.35 14.35 0 1 0 14.36 14.35 14.35 14.35 0 0 0-14.36-14.35zm0 21.75a7.4 7.4 0 1 1 7.4-7.4 7.4 7.4 0 0 1-7.4 7.4z" transform="translate(-304.13 -34.34)"/><rect class="cls-1" x="78.28" y="93.58" width="34.64" height="21.47" rx="7" ry="7"/><path class="cls-1" d="M495.71 106.89c-1-9.29-8.5-36.38-8.5-36.38-1.16-3.86-3.13-7-7-7H453a7 7 0 0 0-7 7V132h-21.9a4.58 4.58 0 0 0-4.58 4.58v4.21a4.58 4.58 0 0 0 4.58 4.58h30.22a18.19 18.19 0 0 1 33.21 0h1.16a7 7 0 0 0 7-7s.38-28.12.02-31.48zm-34.09 6.36h-7.12a2 2 0 0 1 0-4h7.13a2 2 0 0 1-.01 4zm24.9-13.25a4.4 4.4 0 0 1-4.4 4.4h-22.45a4.4 4.4 0 0 1-4.4-4.4V74.48a4.4 4.4 0 0 1 4.4-4.4h17.1c2.43 0 3.67 2 4.4 4.4 0 0 4.72 17 5.35 22.88a6.55 6.55 0 0 1 0 2.64zM375 132h-66.29a4.58 4.58 0 0 0-4.58 4.58v4.21a4.58 4.58 0 0 0 4.58 4.58h10.88a18.19 18.19 0 0 1 33.21 0H375a4.58 4.58 0 0 0 4.58-4.58v-4.21A4.58 4.58 0 0 0 375 132z" transform="translate(-304.13 -34.34)"/><path class="cls-1" d="M330.41 116.84h96a11 11 0 0 0 11-11v-48a11 11 0 0 0-11-11h-18.18a11 11 0 0 0-11 11v1.68l-65.77-25a3.5 3.5 0 0 0-2.46 6.59l1.52.58v4H329a.79.79 0 0 0-.79.79V52a.79.79 0 0 0 .79.79h5.74a.79.79 0 0 0 .79-.79v-5.57a.79.79 0 0 0-.79-.79h-1.49v-2.9l30.38 11.52 3.94 12a10.94 10.94 0 0 0-2 6.36v9.22h-35.16a11 11 0 0 0-11 11v13a11 11 0 0 0 11 11zM383 61.62h-6.5a11 11 0 0 0-3.89.72L370.9 57z" transform="translate(-304.13 -34.34)"/></symbol><symbol id="package" viewBox="0 0 512 512"><path fill="#213036" d="M155.999 370.002c-5.52 0-10 4.48-10 10s4.48 10 10 10 10-4.48 10-10-4.48-10-10-10z"/><path fill="#213036" d="M450.143 190.001l58.929-58.929a10 10 0 0 0-4.122-16.626l-143.5-44.29C348.514 28.575 310.066.002 265.999.002c-40.964 0-77.6 24.965-92.763 62.625L7.022 114.455a10 10 0 0 0-4.094 16.618l60.479 60.479-38.144 63.575a10.001 10.001 0 0 0 5.413 14.632l55.323 18.44v153.802a10 10 0 0 0 6.489 9.363c33.827 12.684 159.512 59.822 160.187 60.061a9.962 9.962 0 0 0 6.398.089c.029-.01.059-.016.088-.026l180-60a10.001 10.001 0 0 0 6.838-9.487v-157.92l58.998-18.54a10 10 0 0 0 4.074-16.611l-58.928-58.929zm-84.144-89.999c0-2.541-.107-5.076-.298-7.603l117.494 36.265-49.897 49.896-81.528-27.173c9.232-15.431 14.229-33.237 14.229-51.385zM190.326 73.974c11.101-32.282 41.512-53.972 75.673-53.972 36.801 0 68.719 24.892 77.618 60.532a80.446 80.446 0 0 1 2.382 19.468c0 18.574-6.164 35.983-17.828 50.352-15.277 18.842-37.938 29.648-62.172 29.648-26.196 0-50.767-12.858-65.733-34.404-9.333-13.406-14.267-29.174-14.267-45.596 0-8.931 1.455-17.688 4.327-26.028zM28.764 128.625l138.3-43.124a100.825 100.825 0 0 0-1.065 14.5c0 16.101 3.814 31.696 11.084 45.767L78.7 178.56l-49.936-49.935zm20.063 126.102l31.62-52.702 160.563 53.521-31.619 52.702-160.564-53.521zm197.172 232.845l-140-52.5V294.866c110.15 36.522 104.771 35.407 107.838 35.407 3.438 0 6.73-1.779 8.577-4.856l23.585-39.311v201.466zm10-248.111l-148.376-49.458 80.794-26.93c18.91 23.247 47.377 36.929 77.582 36.929 27.942 0 54.203-11.499 73.092-31.759l65.284 21.759-148.376 49.459zm170 195.333l-160 53.333v-209.62l35.451 44.31a10.002 10.002 0 0 0 10.807 3.293l113.742-35.743v144.427zM312.791 304.979l-40.024-50.026 160.531-53.51 49.964 49.964-170.471 53.572z"/><path fill="#213036" d="M219.511 392.198l-22.24-8.34c-5.171-1.938-10.935.681-12.875 5.852-1.939 5.172.681 10.936 5.852 12.875l22.24 8.34c5.182 1.942 10.939-.69 12.875-5.852 1.939-5.171-.681-10.936-5.852-12.875zM219.51 434.918l-60-22.5c-5.171-1.939-10.935.681-12.875 5.852-1.94 5.171.681 10.936 5.852 12.875l60 22.5a9.975 9.975 0 0 0 3.51.64c4.049 0 7.859-2.477 9.365-6.492 1.94-5.172-.68-10.936-5.852-12.875zM323.071 62.93c-3.905-3.906-10.237-3.905-14.143 0l-52.929 52.93-12.929-12.929c-3.905-3.905-10.237-3.905-14.143 0-3.906 3.905-3.905 10.237 0 14.143l20.001 19.999c3.905 3.905 10.237 3.905 14.143 0l60-60c3.905-3.905 3.905-10.237 0-14.143z"/></symbol><symbol id="shipped" viewBox="0 0 512 512"><path fill="#213036" d="M476.158 231.363l-13.259-53.035c3.625-.77 6.345-3.986 6.345-7.839v-8.551c0-18.566-15.105-33.67-33.67-33.67h-60.392V110.63c0-9.136-7.432-16.568-16.568-16.568H50.772c-9.136 0-16.568 7.432-16.568 16.568V256a8.017 8.017 0 0 0 16.034 0V110.63c0-.295.239-.534.534-.534h307.841c.295 0 .534.239.534.534v145.372a8.017 8.017 0 0 0 16.034 0v-9.088h94.569l.021.002.022-.001c11.637.008 21.518 7.646 24.912 18.171h-24.928a8.017 8.017 0 0 0-8.017 8.017v17.102c0 13.851 11.268 25.119 25.119 25.119h9.086v35.273h-20.962c-6.886-19.883-25.787-34.205-47.982-34.205s-41.097 14.322-47.982 34.205h-3.86v-60.393a8.017 8.017 0 0 0-16.034 0v60.391H192.817c-6.886-19.883-25.787-34.205-47.982-34.205s-41.097 14.322-47.982 34.205H50.772a.534.534 0 0 1-.534-.534v-17.637h34.739a8.017 8.017 0 0 0 0-16.034H8.017a8.017 8.017 0 0 0 0 16.034h26.188v17.637c0 9.136 7.432 16.568 16.568 16.568h43.304c-.002.178-.014.355-.014.534 0 27.996 22.777 50.772 50.772 50.772s50.772-22.776 50.772-50.772c0-.18-.012-.356-.014-.534h180.67c-.002.178-.014.355-.014.534 0 27.996 22.777 50.772 50.772 50.772 27.995 0 50.772-22.776 50.772-50.772 0-.18-.012-.356-.014-.534h26.203a8.017 8.017 0 0 0 8.017-8.017v-85.511c.001-21.112-15.576-38.653-35.841-41.738zm-100.976-87.062h60.392c9.725 0 17.637 7.912 17.637 17.637v.534h-78.029v-18.171zm0 86.58v-52.376h71.235l13.094 52.376h-84.329zM144.835 401.904c-19.155 0-34.739-15.583-34.739-34.739s15.584-34.739 34.739-34.739c19.155 0 34.739 15.583 34.739 34.739s-15.584 34.739-34.739 34.739zm282.188 0c-19.155 0-34.739-15.583-34.739-34.739s15.584-34.739 34.739-34.739c19.155 0 34.739 15.583 34.739 34.739s-15.584 34.739-34.739 34.739zm68.944-102.614h-9.086c-5.01 0-9.086-4.076-9.086-9.086v-9.086h18.171v18.172z"/><path fill="#213036" d="M144.835 350.597c-9.136 0-16.568 7.432-16.568 16.568 0 9.136 7.432 16.568 16.568 16.568 9.136 0 16.568-7.432 16.568-16.568 0-9.136-7.432-16.568-16.568-16.568zM427.023 350.597c-9.136 0-16.568 7.432-16.568 16.568 0 9.136 7.432 16.568 16.568 16.568 9.136 0 16.568-7.432 16.568-16.568 0-9.136-7.432-16.568-16.568-16.568zM332.96 316.393H213.244a8.017 8.017 0 0 0 0 16.034H332.96a8.017 8.017 0 0 0 0-16.034zM127.733 282.188H25.119a8.017 8.017 0 0 0 0 16.034h102.614a8.017 8.017 0 0 0 0-16.034zM278.771 173.37a8.017 8.017 0 0 0-11.337.001l-71.292 71.291-37.087-37.087a8.016 8.016 0 0 0-11.337 0 8.016 8.016 0 0 0 0 11.337l42.756 42.756c1.565 1.566 3.617 2.348 5.668 2.348s4.104-.782 5.668-2.348l76.96-76.96a8.018 8.018 0 0 0 .001-11.338z"/></symbol><symbol id="support" viewBox="0 0 512 512"><path fill="#213036" d="M366 396c-5.52 0-10 4.48-10 10s4.48 10 10 10 10-4.48 10-10-4.48-10-10-10z"/><path fill="#213036" d="M390.622 363.663l-47.53-15.84-17.063-34.127c15.372-15.646 26.045-36.348 29.644-57.941L357.801 243H376c16.542 0 30-13.458 30-30v-63C406 67.29 338.71 0 256 0c-82.922 0-150 67.097-150 150v63c0 13.036 8.361 24.152 20 28.28V253c0 16.542 13.458 30 30 30h8.782a108.487 108.487 0 0 0 16.774 25.974 103.947 103.947 0 0 0 4.406 4.741l-17.054 34.108-47.531 15.841C66.112 382.092 26 440.271 26 502c0 5.523 4.477 10 10 10h440c5.522 0 10-4.477 10-10 0-61.729-40.111-119.908-95.378-138.337zM386 213c0 5.514-4.486 10-10 10h-15.262c2.542-19.69 4.236-40.643 4.917-61.28.02-.582.036-1.148.054-1.72H386v53zm-250 10c-5.514 0-10-4.486-10-10v-53h20.298c.033 1.043.068 2.091.107 3.146l.004.107v.009c.7 20.072 2.372 40.481 4.856 59.737H136V223zm20 40c-5.514 0-10-4.486-10-10v-10h8.198l2.128 12.759a105.57 105.57 0 0 0 1.482 7.241H156zm-9.983-123H126.38C131.445 72.979 187.377 20 256 20c68.318 0 124.496 52.972 129.619 120h-19.635c-.72-55.227-45.693-100-101.033-100h-17.9c-55.339 0-100.315 44.773-101.034 100zM247.05 60h17.9c44.809 0 81.076 36.651 81.05 81.41 0 3.147-.025 5.887-.078 8.38l-.001.098-12.508-1.787c-33.98-4.852-66.064-20.894-90.342-45.172A10.003 10.003 0 0 0 236 100c-26.856 0-52.564 12.236-69.558 32.908C170.63 92.189 205.053 60 247.05 60zm-68.51 203c-5.006-16.653-10.734-65.653-12-97.053l13.459-17.946c12.361-16.476 31.592-26.713 52.049-27.888 26.917 25.616 61.739 42.532 98.537 47.786l14.722 2.104c-.984 20.885-2.995 41.843-5.876 61.118l-.003.02c-.916 6.197-1.638 10.185-3.482 21.324-5.296 31.765-28.998 60.49-60.287 68.313a81.338 81.338 0 0 1-39.313 0c-19.537-4.884-37.451-18.402-49.012-37.778h20.386c4.128 11.639 15.243 20 28.28 20h20c16.575 0 30-13.424 30-30 0-16.542-13.458-30-30-30h-20c-13.327 0-24.278 8.608-28.297 20H178.54zm56.619 78.016A101.171 101.171 0 0 0 256 343.2c5.471 0 10.943-.458 16.353-1.346l-17.67 18.687-19.524-19.525zm5.776 34.063l-31.718 33.542a381.013 381.013 0 0 1-22.389-51.917l11.911-23.822 42.196 42.197zm70.631-45.585l13.604 27.209a380.908 380.908 0 0 1-22.392 51.933l-33.948-33.948 42.736-45.194zM226 273c0-5.521 4.478-10 10-10h20c5.514 0 10 4.486 10 10 0 5.522-4.479 10-10 10h-20c-5.514 0-10-4.486-10-10zM46.4 492c3.963-49.539 36.932-94.567 81.302-109.363l42.094-14.028a400.869 400.869 0 0 0 28.463 61.74l.056.101.001.002a400.974 400.974 0 0 0 27.372 41.799L237.99 492H46.4zm209.6-8.914l-13.562-21.773a10.133 10.133 0 0 0-.486-.711 381.284 381.284 0 0 1-22.532-33.662l35.663-37.714 37.578 37.578A380.863 380.863 0 0 1 270.05 460.6c-.49.653.205-.376-14.05 22.486zM274.01 492l12.301-19.748a400.826 400.826 0 0 0 27.564-42.132c.05-.088.097-.178.147-.266l.018-.032a400.543 400.543 0 0 0 28.164-61.213l42.093 14.028c44.371 14.796 77.34 59.824 81.303 109.363H274.01z"/><path fill="#213036" d="M435.546 451.531c-6.683-13.377-16.472-25.261-28.309-34.367-4.378-3.369-10.656-2.55-14.023 1.828-3.368 4.378-2.549 10.656 1.828 14.024 9.454 7.273 17.272 16.766 22.611 27.453 2.473 4.949 8.483 6.941 13.415 4.477 4.94-2.468 6.945-8.474 4.478-13.415z"/></symbol><symbol id="wallet" viewBox="0 0 331.493 331.493"><path fill="#213036" d="M298.761 57.093l-101.2-54.8c-9.6-5.2-22.8-1.2-28 8.4l-59.2 110h-72c-9.2 0-16.4 7.2-16.4 16.4v178c0 9.2 7.2 16.4 16.4 16.4h230c9.2 0 16.4-7.2 16.4-16.4v-41.6h6.8c3.6 0 6.4-2.8 6.4-6.4v-47.6c0-3.6-2.8-6.4-6.4-6.4h-6.8v-46.8c0-7.6-5.6-14.4-12.8-16l35.2-65.2c5.2-10 1.6-22.4-8.4-28zm-72-24.4l-63.2 117.2h-18l67.6-124.4 13.6 7.2zm-45.6-16c2-3.6 6.8-5.2 10.4-3.2l10 5.6-70.4 130.8h-22l72-133.2zm-146.8 120c0-1.2 1.6-3.2 3.6-3.2h65.2l-8.8 16h-56.4c-1.2 0-2.4 0-3.6.4v-13.2zm237.2 178.4c0 2-1.6 3.6-3.6 3.6h-230c-2 0-3.6-1.6-3.6-3.6v-148.8c0-2 1.6-3.6 3.6-3.6H267.561c2 0 3.6 1.6 3.6 3.6v46.8h-24.4c-10.8 0-19.2 8.8-19.2 19.2v22c0 10.8 8.8 19.2 19.2 19.2h24.8v41.6zm12.8-89.2h.4v34.8h-38c-3.6 0-6.4-2.8-6.4-6.4v-22c0-3.6 2.8-6.4 6.4-6.4h37.6zm11.2-147.2l-38.4 71.2h-79.2l60-110.8 54.4 29.6c4 1.6 5.2 6.4 3.2 10z"/><path fill="#213036" d="M271.161 72.693l-3.2-1.6c-8-4.4-18.8-1.2-23.2 6.8l-4 7.6c-2 4-2.8 8.8-1.2 13.2 1.2 4.4 4.4 8 8.4 10l3.2 1.6c2.4 1.2 5.2 2 8 2 6.4 0 12-3.6 15.2-8.8l4-7.6c4-8.4.8-18.8-7.2-23.2zm-4.4 17.2l-4 7.6c-1.2 2-4 2.8-6 1.6l-3.2-2c-.8-.4-1.6-1.6-2-2.4-.4-1.2-.4-2.4.4-3.2l4-7.6c.8-1.2 2.4-2.4 4-2.4.8 0 1.2 0 2 .4l3.2 1.6c1.6 1.6 2.4 4 1.6 6.4z"/></symbol></svg>