<?xml version="1.0"?>
<svg xmlns="http://www.w3.org/2000/svg" height="512px" viewBox="-109 -18 597 597.33331" width="512px"><path d="m163.09375 270c-4.527344 0-8.488281 3.039062-9.660156 7.414062-1.171875 4.367188.738281 8.984376 4.660156 11.25 3.917969 2.257813 8.871094 1.609376 12.070312-1.59375 2.859376-2.859374 3.714844-7.164062 2.167969-10.898437-1.550781-3.734375-5.191406-6.171875-9.238281-6.171875zm0 0" fill="#2c3b40"/><path d="m352.097656 300h20.996094v-40h-20.996094c.058594.550781 0 1.136719.085938 1.699219.570312 6 .941406 12.082031.941406 18.300781s-.371094 12.300781-.941406 18.300781c-.085938.546875-.085938 1.136719-.085938 1.699219zm0 0" fill="#2c3b40"/><path d="m330.734375 308.351562c3.140625-18.75 3.140625-37.890624 0-56.640624-14.964844-86.695313-93.769531-147.53125-181.429687-140.066407-87.65625 7.460938-155.039063 80.746094-155.136719 168.722657-.097657 87.976562 67.121093 161.40625 154.769531 169.0625 4.675781.378906 9.410156.570312 14.15625.570312 82.921875-.085938 153.714844-59.90625 167.640625-141.648438zm-37.640625-38.351562h20c5.527344 0 10 4.476562 10 10s-4.472656 10-10 10h-20c-5.523438 0-10-4.476562-10-10s4.476562-10 10-10zm-260 20h-20c-5.523438 0-10-4.476562-10-10s4.476562-10 10-10h20c5.527344 0 10 4.476562 10 10s-4.472656 10-10 10zm120-160c0-5.523438 4.476562-10 10-10 5.527344 0 10 4.476562 10 10v20c0 5.523438-4.472656 10-10 10-5.523438 0-10-4.476562-10-10zm20 300c0 5.523438-4.472656 10-10 10-5.523438 0-10-4.476562-10-10v-20c0-5.523438 4.476562-10 10-10 5.527344 0 10 4.476562 10 10zm81.921875-227.777344-64.921875 64.917969c5.570312 11.421875 3.242188 25.128906-5.789062 34.070313-10.289063 10.410156-26.59375 11.84375-38.546876 3.398437-11.953124-8.441406-16.039062-24.296875-9.664062-37.46875l-36.640625-36.640625c-3.789063-3.921875-3.734375-10.164062.125-14.019531 3.855469-3.859375 10.089844-3.910157 14.015625-.117188l36.660156 36.636719c8.125-3.851562 17.554688-3.851562 25.679688 0l64.941406-64.9375c3.921875-3.789062 10.160156-3.734375 14.019531.121094 3.855469 3.855468 3.910157 10.09375.121094 14.019531zm0 0" fill="#2c3b40"/><path d="m86.773438 105.929688c1-.453126 2.050781-.808594 3.070312-1.238282 3.417969-1.429687 6.871094-2.800781 10.371094-4.003906 1.597656-.554688 3.230468-1.046875 4.851562-1.566406 2.996094-1 6-1.859375 8.996094-2.671875 1.773438-.46875 3.550781-.898438 5.332031-1.316407 3-.703124 6.003907-1.324218 9.058594-1.882812 1.773437-.320312 3.550781-.652344 5.34375-.929688 3.269531-.5 6.554687-.878906 9.867187-1.210937 1.5625-.15625 3.109376-.367187 4.683594-.480469 4.867188-.371094 9.777344-.597656 14.714844-.597656 4.941406 0 9.855469.226562 14.722656.597656 1.570313.113282 3.109375.324219 4.667969.480469 3.320313.332031 6.621094.710937 9.890625 1.210937 1.789062.277344 3.550781.609376 5.320312.929688 3 .558594 6.074219 1.179688 9.082032 1.882812 1.78125.417969 3.546875.847657 5.3125 1.316407 3.054687.8125 6.066406 1.71875 9.074218 2.683593 1.601563.515626 3.210938 1 4.800782 1.546876 3.539062 1.25 7.003906 2.632812 10.511718 4.089843.996094.410157 2 .761719 2.921876 1.183594 4.382812 1.9375 8.714843 4.046875 12.996093 6.328125 1.140625.609375 2.242188 1.308594 3.371094 1.9375 2.46875 1.390625 5 2.75 7.371094 4.253906v-118.472656h-200.011719v118.441406c2.390625-1.492187 4.851562-2.832031 7.304688-4.214844 1.15625-.648437 2.289062-1.367187 3.457031-1.996093 4.238281-2.261719 8.546875-4.359375 12.917969-6.300781zm0 0" fill="#2c3b40"/><path d="m239.40625 454.070312c-1 .453126-2.003906.808594-3.003906 1.226563-3.417969 1.441406-6.878906 2.8125-10.375 4.003906-1.601563.558594-3.234375 1.050781-4.855469 1.566407-2.996094 1.003906-6 1.863281-8.996094 2.671874-1.769531.46875-3.550781.898438-5.332031 1.320313-3 .703125-5.996094 1.320313-9 1.878906-1.777344.324219-3.558594.648438-5.347656.933594-3.261719.496094-6.5625.878906-9.871094 1.210937-1.558594.15625-3.113281.367188-4.679688.476563-4.871093.371094-9.78125.601563-14.722656.601563s-9.847656-.230469-14.71875-.601563c-1.570312-.109375-3.105468-.320313-4.667968-.476563-3.320313-.332031-6.621094-.714843-9.890626-1.210937-1.78125-.285156-3.546874-.609375-5.320312-.933594-3-.558593-6.070312-1.175781-9.082031-1.878906-1.777344-.421875-3.550781-.851563-5.308594-1.320313-3.0625-.808593-6.070313-1.71875-9.082031-2.679687-1.597656-.515625-3.207032-1-4.800782-1.546875-3.539062-1.25-6.996093-2.632812-10.496093-4.09375-1-.410156-2.003907-.761719-2.929688-1.179688-4.394531-1.9375-8.726562-4.046874-13.003906-6.328124-1.136719-.609376-2.234375-1.308594-3.367187-1.9375-2.472657-1.394532-5-2.757813-7.371094-4.253907v118.480469h199.910156v-118.441406c-2.390625 1.492187-4.839844 2.820312-7.277344 4.203125-1.171875.660156-2.3125 1.367187-3.492187 1.996093-4.226563 2.277344-8.535157 4.382813-12.917969 6.3125zm0 0" fill="#2c3b40"/></svg>
